<svg xmlns="http://www.w3.org/2000/svg" viewBox="0 0 800 800" width="800" height="800">
<defs><linearGradient id="g" x1="0" y1="0" x2="1" y2="1"><stop offset="0" stop-color="#ede5fa"/><stop offset="1" stop-color="#c5b1ea"/></linearGradient>
<radialGradient id="r" cx=".3" cy=".25" r=".6"><stop offset="0" stop-color="#fff" stop-opacity=".8"/><stop offset="1" stop-color="#fff" stop-opacity="0"/></radialGradient></defs>
<rect width="800" height="800" fill="url(#g)"/><rect width="800" height="800" fill="url(#r)"/><circle cx="548" cy="644" r="3" fill="#fff" opacity="0.9"/><circle cx="380" cy="271" r="3" fill="#fff" opacity="0.7"/><circle cx="591" cy="149" r="2.5" fill="#fff" opacity="0.7"/><circle cx="782" cy="83" r="3" fill="#fff" opacity="0.5"/><circle cx="180" cy="630" r="1.5" fill="#fff" opacity="0.7"/><circle cx="528" cy="259" r="2.5" fill="#fff" opacity="0.9"/><circle cx="599" cy="679" r="2.5" fill="#fff" opacity="0.9"/><circle cx="1" cy="765" r="1.5" fill="#fff" opacity="0.5"/><circle cx="152" cy="297" r="3" fill="#fff" opacity="0.7"/><circle cx="524" cy="372" r="1.5" fill="#fff" opacity="0.5"/><circle cx="500" cy="232" r="1.5" fill="#fff" opacity="0.5"/><circle cx="55" cy="2" r="2.5" fill="#fff" opacity="0.7"/><circle cx="108" cy="535" r="2.5" fill="#fff" opacity="0.9"/><circle cx="229" cy="423" r="2.5" fill="#fff" opacity="0.9"/><circle cx="136" cy="209" r="2.5" fill="#fff" opacity="0.9"/><circle cx="486" cy="162" r="2" fill="#fff" opacity="0.5"/><circle cx="249" cy="724" r="2" fill="#fff" opacity="0.7"/><circle cx="98" cy="65" r="2" fill="#fff" opacity="0.9"/><circle cx="800" cy="276" r="3" fill="#fff" opacity="0.7"/><circle cx="11" cy="57" r="2.5" fill="#fff" opacity="0.9"/><circle cx="661" cy="592" r="3" fill="#fff" opacity="0.9"/><circle cx="530" cy="751" r="3" fill="#fff" opacity="0.5"/><circle cx="169" cy="0" r="1.5" fill="#fff" opacity="0.5"/><circle cx="544" cy="25" r="3" fill="#fff" opacity="0.5"/><circle cx="243" cy="163" r="1.5" fill="#fff" opacity="0.5"/><circle cx="12" cy="627" r="2" fill="#fff" opacity="0.5"/><circle cx="423" cy="204" r="3" fill="#fff" opacity="0.9"/><circle cx="178" cy="520" r="2.5" fill="#fff" opacity="0.5"/>
<g fill="none" stroke="#5e4a91" stroke-opacity=".55" stroke-width="2"><rect x="354.0" y="330.0" width="92" height="70" rx="12"/><circle cx="400.0" cy="365.0" r="18"/><circle cx="430.0" cy="342.0" r="3" fill="#5e4a91"/></g>
<text x="50%" y="440.0" text-anchor="middle" font-family="Georgia, serif" font-size="34" letter-spacing="6" fill="#5e4a91">REVOLUCIÓN SOLAR</text>
<text x="50%" y="480.0" text-anchor="middle" font-family="Georgia, serif" font-style="italic" font-size="22" fill="#5e4a91" fill-opacity=".75">Foto de ejemplo · reemplazar</text>
<text x="50%" y="760" text-anchor="middle" font-family="monospace" font-size="16" fill="#5e4a91" fill-opacity=".6">/images/astrologia/revolucion-solar.svg</text>
</svg>